{
  "asset": {
    "version": "2.0",
    "generator": "GPU Pipeline Test Fixture (Embedded)"
  },
  "scene": 0,
  "scenes": [
    {
      "name": "TestScene",
      "nodes": [
        0
      ]
    }
  ],
  "nodes": [
    {
      "name": "TestCube",
      "mesh": 0,
      "translation": [
        0.0,
        0.0,
        0.0
      ],
      "rotation": [
        0.0,
        0.0,
        0.0,
        1.0
      ],
      "scale": [
        1.0,
        1.0,
        1.0
      ]
    }
  ],
  "meshes": [
    {
      "name": "CubeMesh",
      "primitives": [
        {
          "attributes": {
            "POSITION": 0,
            "NORMAL": 1,
            "TEXCOORD_0": 2
          },
          "indices": 3,
          "material": 0,
          "mode": 4
        }
      ]
    }
  ],
  "materials": [
    {
      "name": "CubeMaterial",
      "pbrMetallicRoughness": {
        "baseColorFactor": [
          0.8,
          0.5,
          0.2,
          1.0
        ],
        "metallicFactor": 0.0,
        "roughnessFactor": 0.7
      }
    }
  ],
  "buffers": [
    {
      "byteLength": 328,
      "uri": "data:application/octet-stream;base64,\nAAC/AAAAPwAAAL8AAAC/AAAAPwAAAD8AAAC/AAAAvwAAAD8AAAC/AAAAAAAAAAAAAIA/AAAAAAAA\nAAAAAIA/AAAAAAAAAAAAAIA/AAAAAAAAAAAAAIA/AAAAAAAAAAAAAIC/AAAAAAAAAAAAAIC/AAAA\nAAAAAAAAAIC/AAAAAAAAAAAAAIC/AAAAAAAAAAAAAIA/AAAAAAAAgD8AAIA/AAAAAAAAgD8AAAAA\nAAAAAAAAgD8AAAAAAACAPwAAgD8AAAAAAACAPwAAAQACAAAAAgADAAUABAAHAAUABwAGAAQAAAAD\nAAQAAwAHAAEABQAGAAEABgACAAMAAgAGAAMABgAHAAQABQABAAQAAQAAAA=="
    }
  ],
  "bufferViews": [
    {
      "buffer": 0,
      "byteOffset": 0,
      "byteLength": 96,
      "target": 34962
    },
    {
      "buffer": 0,
      "byteOffset": 96,
      "byteLength": 96,
      "target": 34962
    },
    {
      "buffer": 0,
      "byteOffset": 192,
      "byteLength": 64,
      "target": 34962
    },
    {
      "buffer": 0,
      "byteOffset": 256,
      "byteLength": 72,
      "target": 34963
    }
  ],
  "accessors": [
    {
      "bufferView": 0,
      "byteOffset": 0,
      "componentType": 5126,
      "count": 8,
      "type": "VEC3",
      "max": [
        0.5,
        0.5,
        0.5
      ],
      "min": [
        -0.5,
        -0.5,
        -0.5
      ]
    },
    {
      "bufferView": 1,
      "byteOffset": 0,
      "componentType": 5126,
      "count": 8,
      "type": "VEC3"
    },
    {
      "bufferView": 2,
      "byteOffset": 0,
      "componentType": 5126,
      "count": 8,
      "type": "VEC2"
    },
    {
      "bufferView": 3,
      "byteOffset": 0,
      "componentType": 5123,
      "count": 36,
      "type": "SCALAR",
      "max": [
        7
      ],
      "min": [
        0
      ]
    }
  ]
}